<svg width="12" height="12" viewBox="0 0 12 12" fill="none" xmlns="http://www.w3.org/2000/svg">
<path d="M11.8479 0.153028C11.7213 0.0264674 11.4241 -0.0670421 11.2997 0.0616229L6.00047 5.36088L0.70121 0.0616229C0.574649 -0.0649378 0.279584 0.0264674 0.153027 0.153028C0.0264708 0.279589 -0.0670431 0.576904 0.061622 0.701211L5.36088 6.00047L0.061622 11.2997C-0.0649388 11.4263 0.0264665 11.7213 0.153027 11.8479C0.279588 11.9745 0.574654 12.0658 0.70121 11.9393L6.00047 6.64006L11.2997 11.9393C11.4263 12.0659 11.7214 11.9745 11.8479 11.8479C11.9745 11.7213 12.0658 11.4263 11.9393 11.2997L6.64006 6.00047L11.9393 0.701211C12.0659 0.57465 11.9745 0.279585 11.8479 0.153028Z" fill="#999999"/>
</svg>
