<svg width="23" height="12" viewBox="0 0 23 12" fill="none" xmlns="http://www.w3.org/2000/svg">
<path d="M11.0013 0C6.52798 0 2.55871 2.24352 0.0948232 5.70323C-0.0316077 5.87797 -0.0316077 6.11427 0.0948232 6.28918C2.55893 9.74871 6.52798 12 11.0013 12C15.4746 12 19.4438 9.74862 21.9077 6.28918C22.0342 6.11427 22.0342 5.87797 21.9077 5.70323C19.4436 2.24352 15.4746 0 11.0013 0ZM11.0013 0.999929C15.0089 0.999929 18.5608 2.95831 20.8608 6.00002C18.5607 9.03981 15.0072 11.0001 11.0013 11.0001C6.9954 11.0001 3.44176 9.03981 1.14172 6.00002C3.44189 2.95831 6.99361 0.999929 11.0013 0.999929ZM11.0013 2.50005C9.0741 2.50005 7.5013 4.07284 7.5013 6.00002C7.5013 7.9272 9.0741 9.5 11.0013 9.5C12.9285 9.5 14.5013 7.9272 14.5013 6.00002C14.5013 4.07284 12.9285 2.50005 11.0013 2.50005ZM11.0013 3.49998C12.388 3.49998 13.5013 4.6133 13.5013 6.00002C13.5013 7.38661 12.388 8.50007 11.0013 8.50007C9.61455 8.50007 8.50123 7.38661 8.50123 6.00002C8.50123 4.6133 9.61455 3.49998 11.0013 3.49998Z" fill="#9E9E9E"/>
</svg>
