<svg width="42" height="54" viewBox="0 0 42 54" fill="none" xmlns="http://www.w3.org/2000/svg">
<path d="M28.4577 39.0833C28.1372 39.0833 27.8299 39.2106 27.6033 39.4372C27.3767 39.6638 27.2493 39.9712 27.2493 40.2916V41.5H3.08268V12.5H27.2493V13.7083C27.2493 14.0288 27.3767 14.3361 27.6033 14.5627C27.8299 14.7893 28.1372 14.9166 28.4577 14.9166C28.7782 14.9166 29.0855 14.7893 29.3121 14.5627C29.5387 14.3361 29.666 14.0288 29.666 13.7083V6.45829C29.666 4.85594 29.0295 3.31922 27.8965 2.18619C26.7634 1.05316 25.2267 0.416626 23.6243 0.416626H6.70768C5.10533 0.416626 3.56861 1.05316 2.43558 2.18619C1.30255 3.31922 0.666016 4.85594 0.666016 6.45829V47.5416C0.666016 49.144 1.30255 50.6807 2.43558 51.8137C3.56861 52.9468 5.10533 53.5833 6.70768 53.5833H23.6243C25.2267 53.5833 26.7634 52.9468 27.8965 51.8137C29.0295 50.6807 29.666 49.144 29.666 47.5416V40.2916C29.666 39.9712 29.5387 39.6638 29.3121 39.4372C29.0855 39.2106 28.7782 39.0833 28.4577 39.0833ZM6.70768 2.83329H23.6243C24.5858 2.83329 25.5078 3.21521 26.1876 3.89503C26.8674 4.57485 27.2493 5.49688 27.2493 6.45829V10.0833H3.08268V6.45829C3.08268 5.49688 3.4646 4.57485 4.14442 3.89503C4.82424 3.21521 5.74627 2.83329 6.70768 2.83329ZM23.6243 51.1666H6.70768C5.74627 51.1666 4.82424 50.7847 4.14442 50.1049C3.4646 49.4251 3.08268 48.503 3.08268 47.5416V43.9166H27.2493V47.5416C27.2493 48.503 26.8674 49.4251 26.1876 50.1049C25.5078 50.7847 24.5858 51.1666 23.6243 51.1666Z" fill="#1D1818"/>
<path d="M16.375 46.3333H13.9583C13.6379 46.3333 13.3305 46.4606 13.1039 46.6872C12.8773 46.9138 12.75 47.2211 12.75 47.5416C12.75 47.8621 12.8773 48.1694 13.1039 48.396C13.3305 48.6226 13.6379 48.7499 13.9583 48.7499H16.375C16.6955 48.7499 17.0028 48.6226 17.2294 48.396C17.456 48.1694 17.5833 47.8621 17.5833 47.5416C17.5833 47.2211 17.456 46.9138 17.2294 46.6872C17.0028 46.4606 16.6955 46.3333 16.375 46.3333Z" fill="#1D1818"/>
<path d="M11.5404 7.66667H18.7904C19.1108 7.66667 19.4182 7.53936 19.6448 7.31275C19.8714 7.08615 19.9987 6.7788 19.9987 6.45833C19.9987 6.13786 19.8714 5.83052 19.6448 5.60391C19.4182 5.37731 19.1108 5.25 18.7904 5.25H11.5404C11.2199 5.25 10.9125 5.37731 10.6859 5.60391C10.4593 5.83052 10.332 6.13786 10.332 6.45833C10.332 6.7788 10.4593 7.08615 10.6859 7.31275C10.9125 7.53936 11.2199 7.66667 11.5404 7.66667Z" fill="#1D1818"/>
<path d="M38.1243 17.3333H18.791C17.8296 17.3333 16.9076 17.7152 16.2278 18.395C15.5479 19.0748 15.166 19.9968 15.166 20.9583V33.0416C15.166 34.003 15.5479 34.925 16.2278 35.6048C16.9076 36.2847 17.8296 36.6666 18.791 36.6666H38.1243C39.0858 36.6666 40.0078 36.2847 40.6876 35.6048C41.3674 34.925 41.7493 34.003 41.7493 33.0416V20.9583C41.7493 19.9968 41.3674 19.0748 40.6876 18.395C40.0078 17.7152 39.0858 17.3333 38.1243 17.3333ZM18.791 19.7499H38.1243C38.4448 19.7499 38.7522 19.8772 38.9788 20.1038C39.2054 20.3304 39.3327 20.6378 39.3327 20.9583V22.1666H17.5827V20.9583C17.5827 20.6378 17.71 20.3304 17.9366 20.1038C18.1632 19.8772 18.4705 19.7499 18.791 19.7499ZM38.1243 34.2499H18.791C18.4705 34.2499 18.1632 34.1226 17.9366 33.896C17.71 33.6694 17.5827 33.3621 17.5827 33.0416V24.5833H39.3327V33.0416C39.3327 33.3621 39.2054 33.6694 38.9788 33.896C38.7522 34.1226 38.4448 34.2499 38.1243 34.2499Z" fill="#1D1818"/>
<path d="M23.625 29.4166H21.2083C20.8879 29.4166 20.5805 29.5439 20.3539 29.7705C20.1273 29.9971 20 30.3045 20 30.625C20 30.9454 20.1273 31.2528 20.3539 31.4794C20.5805 31.706 20.8879 31.8333 21.2083 31.8333H23.625C23.9455 31.8333 24.2528 31.706 24.4794 31.4794C24.706 31.2528 24.8333 30.9454 24.8333 30.625C24.8333 30.3045 24.706 29.9971 24.4794 29.7705C24.2528 29.5439 23.9455 29.4166 23.625 29.4166Z" fill="#1D1818"/>
</svg>
