<svg width="10" height="15" viewBox="0 0 10 15" fill="none" xmlns="http://www.w3.org/2000/svg">
<path d="M5.35112 9.29776C7.91458 9.29776 10 7.21216 10 4.64888C10 2.08561 7.91469 0 5.35112 0H2.021C1.5806 0 1.22374 0.356984 1.22374 0.797265C1.22374 0.865322 1.23317 0.931062 1.24914 0.994041C1.23317 1.05702 1.22374 1.12276 1.22374 1.19082V7.70312H0.797264C0.356858 7.70312 0 8.0601 0 8.50038C0 8.94079 0.356984 9.29765 0.797264 9.29765H1.22374V10.331H0.797264C0.356858 10.331 0 10.688 0 11.1283C0 11.5684 0.356984 11.9255 0.797264 11.9255H1.22374V13.3199C1.22374 13.7603 1.58072 14.1172 2.021 14.1172C2.46141 14.1172 2.81827 13.7602 2.81827 13.3199V11.9255H5.17057C5.61098 11.9255 5.96784 11.5685 5.96784 11.1283C5.96784 10.6881 5.61085 10.331 5.17057 10.331L2.81827 10.3308V9.2975L5.35112 9.29776ZM2.81827 1.59445H5.35112C7.03533 1.59445 8.40551 2.96464 8.40551 4.6487C8.40551 6.3329 7.03533 7.70309 5.35112 7.70309H2.81827V1.59445Z" fill="black"/>
</svg>
